<svg width="371" height="159" viewBox="0 0 371 159" fill="none" xmlns="http://www.w3.org/2000/svg">

  <!-- 鼻子/喙 — 中轴对齐到 x=185.5 -->
  <path d="M200.5 81.4771C201.341 77.4988 200.496 73.6835 197.669 70.8704C194.870 68.0574 190.319 66.4771 185.5 66.4771C180.682 66.4771 176.130 68.0574 173.331 70.8704C170.504 73.6835 169.659 77.4988 170.5 81.4771C170.75 82.6771 171.0 83.8771 171.25 85.0771C175.75 106.677 180.25 128.277 184.75 149.877C185.0 151.077 185.25 152.277 185.5 153.477C185.75 152.277 186.0 151.077 186.25 149.877C190.75 128.277 195.25 106.677 199.75 85.0771C200.0 83.8771 200.25 82.6771 200.5 81.4771Z" fill="black"/>

  <!-- 右眼外圆 — cx=262 (185.5+76.5) -->
  <ellipse cx="262" cy="81.4771" rx="66.5" ry="67" stroke="black" stroke-width="20" stroke-linecap="round"/>

  <!-- 左眼外圆 — cx=109 (185.5-76.5) -->
  <ellipse cx="109" cy="81.4771" rx="66.5" ry="67" stroke="black" stroke-width="20" stroke-linecap="round"/>

  <!-- 右眼内圆 — 完全统一为 r=27.5 -->
  <circle cx="262" cy="81.4771" r="27.5" stroke="black" stroke-width="20" stroke-linecap="round"/>

  <!-- 左眼内圆 — 完全统一为 r=27.5 -->
  <circle cx="109" cy="81.4771" r="27.5" stroke="black" stroke-width="20" stroke-linecap="round"/>

  <!-- 左侧眉弓 — 以 x=185.5 为轴镜像右侧 -->
  <path d="M170.033 74.385C170.452 75.1914 171.075 75.9094 171.887 76.3511C172.697 76.7929 173.617 76.9252 174.478 76.7104C175.339 76.4956 176.089 75.9465 176.597 75.1757C177.105 74.4046 177.319 73.4778 177.310 72.5691C177.193 68.6795 176.924 65.143 176.262 61.297C173.869 46.3698 165.910 31.2146 153.152 21.2025C104.924 -13.2767 50.361 4.7579 3.526 4.433C0.086 4.38285 -3.307 4.20058 -6.564 3.80595C-7.515 3.68521 -8.495 3.89445 -9.299 4.43776C-10.103 4.98061 -10.663 5.80555 -10.858 6.74143C-11.053 7.67732 -10.869 8.65725 -10.349 9.47602C-9.829 10.2952 -9.014 10.8787 -8.094 11.1481C-4.580 12.1637 -0.944 12.9172 2.708 13.5073C52.264 20.2041 105.796 10.0521 140.691 36.8464C150.110 44.3132 157.986 53.7153 164.962 65.3376C166.732 68.3197 168.357 71.1283 170.033 74.385Z" fill="black"/>

  <!-- 右侧眉弓 — 完全镜像左侧（以 x=185.5 翻转） -->
  <path d="M200.967 74.385C200.548 75.1914 199.925 75.9094 199.113 76.3511C198.303 76.7929 197.383 76.9252 196.522 76.7104C195.661 76.4956 194.911 75.9465 194.403 75.1757C193.895 74.4046 193.681 73.4778 193.690 72.5691C193.807 68.6795 194.076 65.143 194.738 61.297C197.131 46.3698 205.090 31.2146 217.848 21.2025C266.076 -13.2767 320.639 4.7579 367.474 4.433C370.914 4.38285 374.307 4.20058 377.564 3.80595C378.515 3.68521 379.495 3.89445 380.299 4.43776C381.103 4.98061 381.663 5.80555 381.858 6.74143C382.053 7.67732 381.869 8.65725 381.349 9.47602C380.829 10.2952 380.014 10.8787 379.094 11.1481C375.580 12.1637 371.944 12.9172 368.292 13.5073C318.736 20.2041 265.204 10.0521 230.309 36.8464C220.890 44.3132 213.014 53.7153 206.038 65.3376C204.268 68.3197 202.643 71.1283 200.967 74.385Z" fill="black"/>

</svg>
